# xmcd
#
# Track frame offsets:
# 150
# 4721
# 26271
# 35615
# 50564
# 65405
# 84357
# 98291
# 114693
# 129025
# 134758
# 149497
# 165840
# 177607
# 190354
# 209312
# 224347
# 231865
# 248861
# 265204
# 280239
#
# Disc length: 3976 seconds
#
# Revision: 0
# Processed by: cddbd v1.5.1PL0 Copyright (c) Steve Scherf et al.
# Submitted via: Audion 3.0.2 (http://www.panic.com/audion/)
#
DISCID=2b0f8615
DTITLE=Various Artist - Hood Grown Mixtape: Born and Raised
DYEAR=1900
DGENRE=
TTITLE0=Intro
TTITLE1=Angelous featuring K-Sparks: Can't Stop
TTITLE2=Diggs: In The Game For Life
TTITLE3=Gutter: New York
TTITLE4=Jax Beats and Petey Pablo: That's That Shit Remix
TTITLE5=Lord Have Mercy: Get Your Strut On
TTITLE6=Marc Dollarz: No One Contender
TTITLE7=Special Ed: Special
TTITLE8=Jinx Da Juvy: In My Lifetime
TTITLE9=Wor Whosane: Freestyle
TTITLE10=Nevada: Don't Worry
TTITLE11=Nevada featuring Junior and the Game: Put It In The Air
TTITLE12=Creature: Messin Around
TTITLE13=Jax Beats: Let's Break His Heart
TTITLE14=Young Noah featuring T.I. and Young City: So Gangsta
TTITLE15=Ike Dirty, Slash, and Jinx Da Juvy: Smack Yo Head
TTITLE16=Gates: You Willing To Die
TTITLE17=Lori Ann: All I Need
TTITLE18=DJ Rondevu featuring Un Pacino and Hogg Brando: Baby That's It
TTITLE19=Jay-Z and Biggie: Brooklyn BadBoys (DJ Snoyl All-Star Mix)
TTITLE20=Bonus Track
EXTD=
EXTT0=
EXTT1=
EXTT2=
EXTT3=
EXTT4=
EXTT5=
EXTT6=
EXTT7=
EXTT8=
EXTT9=
EXTT10=
EXTT11=
EXTT12=
EXTT13=
EXTT14=
EXTT15=
EXTT16=
EXTT17=
EXTT18=
EXTT19=
EXTT20=
PLAYORDER=
